<svg width="468" height="219" viewBox="0 0 468 219" fill="none" xmlns="http://www.w3.org/2000/svg">
<g clip-path="url(#clip0)">
<path d="M302.4 83.7C301.5 89.3 299.4 93.9 295.9 97.5C292.4 101.1 288 103.7 282.6 105.2V105.5C285.6 105.8 288.4 106.5 290.8 107.8C293.2 109.1 295.2 110.8 296.8 112.9C298.4 115 299.6 117.4 300.3 120.1C301.1 122.8 301.2 125.8 300.7 128.9C300 134.2 298.3 138.6 295.6 142C292.9 145.4 289.7 148.1 285.9 150.1C282 152.1 277.9 153.5 273.3 154.4C268.8 155.2 264.4 155.6 260 155.6H231.6L244.9 60.3H274C277.9 60.3 281.7 60.7 285.4 61.5C289.1 62.3 292.3 63.6 295 65.5C297.6 67.3 299.7 69.7 301.1 72.7C302.6 75.6 303 79.3 302.4 83.7ZM150.5 123.5C151.6 128.3 153.5 132.4 156.2 136C158.9 139.5 162.3 142.3 166.5 144.4C170.7 146.5 175.4 147.5 180.8 147.5C186.6 147.5 192 146.3 196.9 144.1C201.8 141.8 206.3 138.5 210.3 134.2L217.7 141.3C212.6 147 206.8 151.3 200.4 153.9C194 156.6 187 158 179.3 158C172.5 158 166.3 156.7 160.8 154.2C155.2 151.7 150.5 148.2 146.8 143.8C143.1 139.3 140.4 134.1 138.8 128C137.2 121.9 136.9 115.2 137.9 107.9C138.9 100.9 141 94.4 144.3 88.3C147.5 82.2 151.6 76.9 156.6 72.4C161.5 67.9 167.1 64.4 173.4 61.7C179.7 59.1 186.4 57.8 193.5 57.8C199.9 57.8 206 59 211.6 61.3C217.2 63.7 221.6 67.5 225 72.8L214.1 79.9C211.7 76.1 208.6 73.2 204.7 71.2C200.8 69.3 196.6 68.3 192 68.3C186.7 68.3 181.7 69.4 176.9 71.6C172.2 73.7 167.9 76.6 164.1 80.3C160.4 83.9 157.2 88.1 154.8 92.9C152.3 97.7 150.7 102.7 150 107.9C149.2 113.5 149.3 118.7 150.5 123.5ZM417 110.2C462 58.6 413.9 15.3 309.5 13.6C234.8 12.4 151.5 32.8 93.7 63.5L82.2 145.1H125.8L124.4 155.6H69.5L81.4 70.4C64 80.8 49.5 92.1 39.1 104.1C-6.00003 155.8 42.2 199 146.5 200.7C216 201.9 292.8 184.3 349.8 157.2C346.4 156.5 343.3 155.6 340.3 154.2C334.7 151.7 330.1 148.2 326.4 143.8C322.7 139.3 320 134.1 318.4 128C316.8 121.9 316.4 115.2 317.4 107.9C318.4 100.9 320.5 94.4 323.8 88.3C327.1 82.2 331.2 76.9 336.1 72.4C341.1 67.9 346.7 64.4 353 61.7C359.2 59.1 365.9 57.8 373 57.8C379.5 57.8 385.5 59 391.1 61.3C396.7 63.7 401.2 67.5 404.5 72.8L393.6 79.9C391.3 76.1 388.2 73.2 384.3 71.2C380.3 69.3 376.1 68.3 371.5 68.3C366.2 68.3 361.2 69.4 356.5 71.6C351.7 73.7 347.4 76.6 343.7 80.3C339.9 83.9 336.8 88.1 334.3 92.9C331.8 97.7 330.3 102.7 329.5 107.9C328.7 113.5 328.9 118.7 330 123.5C331.1 128.3 333 132.4 335.7 136C338.4 139.5 341.9 142.3 346 144.4C350.2 146.5 355 147.5 360.4 147.5C364.1 147.5 367.6 147 370.9 146.1C390 135.1 405.8 123 417 110.2ZM268.4 111.1H249.1L244.2 145.1H263.3C266.1 145.1 268.9 144.8 271.7 144.2C274.6 143.6 277.2 142.7 279.5 141.4C281.9 140.1 283.9 138.4 285.6 136.2C287.3 134.1 288.3 131.6 288.8 128.5C289.2 125.2 288.9 122.4 288 120.2C287 117.9 285.5 116.1 283.6 114.8C281.6 113.4 279.4 112.5 276.7 112C274.1 111.4 271.3 111.1 268.4 111.1ZM285.2 73.6C283.4 72.5 281.4 71.8 278.9 71.4C276.5 71 274 70.8 271.5 70.8H254.7L250.5 100.6H266.1C268.8 100.6 271.5 100.5 274.1 100.1C276.7 99.8 279.1 99 281.3 97.9C283.5 96.8 285.4 95.2 286.9 93.2C288.5 91.2 289.5 88.5 290 85.2C290.3 82.2 290.1 79.8 289.2 78C288.3 76.1 286.9 74.7 285.2 73.6ZM466.9 59.9C459.8 18.3 390.9 -5.9 288.6 1.5C272.5 2.6 247.2 7.4 228.7 11.8C253.5 7.7 278.7 5.5 303.2 5.5C305.3 5.5 307.5 5.6 309.6 5.6C342.5 6.1 371.4 10.8 393.4 19.2C415.9 27.7 431.4 40.2 438.1 55.2C442.2 64.5 443 74.5 440.3 84.9C437.7 95 431.9 105.3 423 115.5C411.3 128.9 394.8 141.6 374.9 153C435.1 126.8 472.3 91.8 466.9 59.9ZM146.4 208.7C113.6 208.2 84.6 203.5 62.6 195.1C40.1 186.6 24.6 174.1 18 159.1C13.8 149.8 13.1 139.8 15.7 129.5C16.5 126.3 17.6 123.1 19.1 120C18.1 120.9 17.1 121.9 16.1 122.9C-57.8 237 141.8 228.4 224 203.1C200.3 206.8 176.2 208.8 152.8 208.8C150.7 208.8 148.5 208.8 146.4 208.7Z" fill="#008CD0"/>
</g>
<defs>
<clipPath id="clip0">
<rect width="468" height="219" fill="white"/>
</clipPath>
</defs>
</svg>
